<?xml version="1.0" encoding="UTF-8"?>
<svg id="Ebene_1" data-name="Ebene 1" xmlns="http://www.w3.org/2000/svg" viewBox="0 0 94 48">
  <defs>
    <style>
      .cls-1 {
        fill: #009fe3;
      }

      .cls-2 {
        fill: #1d1d1b;
      }
    </style>
  </defs>
  <path class="cls-2" d="M34.94,35.58h-4.55v-10.05h-2.77v12.29h7.32v-2.25h0ZM41.26,38.04h.05c3.42,0,5.13-1.86,5.13-5.54v-6.97h-2.77v7.24c0,1.92-.76,2.88-2.29,2.88s-2.33-.99-2.33-2.98v-7.13h-2.78v7.1c0,3.6,1.66,5.4,4.98,5.41h0ZM94,37.83v-12.29h-2.61v6.8c0,.84.02,1.4.07,1.69h-.04c-.19-.33-.39-.67-.62-1l-4.88-7.48h-2.98v12.29h2.62v-6.76c0-.89-.02-1.56-.07-1.99h.04c.11.23.32.57.62,1.02l5.07,7.73h2.79,0ZM58.34,35.58h-6.18l6.16-8.5v-1.55h-9.43v2.25h5.85l-6.3,8.44v1.59h9.9v-2.25h0ZM68.2,35.58h-4.6v-2.81h4.02v-2.25h-4.02v-2.73h4.32v-2.25h-7.09v12.29h7.37v-2.25h0ZM79.04,34.19c-.12-.19-.25-.38-.4-.58s-.3-.38-.46-.55-.33-.32-.5-.45c-.17-.13-.35-.22-.53-.28v-.04c.42-.12.8-.29,1.14-.5.34-.21.63-.46.87-.75.24-.29.42-.62.56-.98.13-.36.2-.76.2-1.19,0-2.23-1.49-3.34-4.47-3.34h-4.39v12.29h2.77v-4.71h.75c.17,0,.33.04.48.11s.29.17.42.31.27.3.4.49c.13.19.27.4.41.64l1.91,3.16h3.18l-2.32-3.63h0ZM75.07,27.61c1.29,0,1.93.54,1.93,1.61,0,.51-.18.95-.55,1.29-.36.34-.84.51-1.43.51h-1.2v-3.42s1.25,0,1.25,0Z"/>
  <path class="cls-2" d="M30.54,16.07l5.27-5.9h-1.79l-4.6,5.36c-.14.15-.25.29-.33.42h-.04v-5.78h-1.44v12.29h1.44v-6.05h.04c.04.07.15.22.33.43l4.75,5.62h2.01l-5.64-6.4h0ZM94,22.46v-12.29h-1.43v8.66c0,.85.03,1.45.09,1.81h-.04c-.07-.15-.24-.42-.5-.82l-6.15-9.65h-1.87v12.29h1.44v-8.88c0-.86-.02-1.43-.07-1.69h.05c.1.27.23.53.39.77l6.33,9.8h1.76ZM76.06,9.96h-.08c-1.82,0-3.26.6-4.32,1.77-1.07,1.18-1.6,2.76-1.6,4.73,0,1.84.52,3.33,1.57,4.48,1.05,1.15,2.44,1.72,4.19,1.72s3.21-.58,4.27-1.75,1.59-2.75,1.59-4.76c0-1.85-.52-3.34-1.56-4.48-1.03-1.13-2.38-1.71-4.06-1.72h0ZM42.8,10.17h-1.49l-4.72,12.29h1.6l1.23-3.45h5.21l1.3,3.45h1.59l-4.73-12.29h0ZM39.9,17.72l1.91-5.24c.07-.2.14-.47.2-.82h.04c.06.38.12.65.19.82l1.93,5.24h-4.26ZM59.25,10.17h-1.44v8.66c0,.85.03,1.45.09,1.81h-.04c-.07-.15-.24-.42-.5-.82l-6.15-9.65h-1.87v12.29h1.44v-8.88c0-.86-.02-1.43-.07-1.69h.05c.1.27.23.53.39.77l6.33,9.8h1.77v-12.29h0ZM69.59,10.17h-8.53v1.3h3.54v10.99h1.44v-10.99h3.55v-1.3h0ZM79.04,12.59c.75.89,1.13,2.14,1.13,3.76s-.39,2.81-1.17,3.7c-.78.88-1.84,1.32-3.19,1.32-1.26,0-2.29-.46-3.07-1.38-.79-.92-1.18-2.14-1.18-3.66s.4-2.74,1.21-3.67,1.86-1.4,3.15-1.4,2.37.44,3.12,1.33h0Z"/>
  <polygon class="cls-1" points="0 37.8 13.81 37.8 13.81 10.18 0 10.18 0 37.8 0 37.8"/>
</svg>